<?xml version="1.0" standalone="no"?>
<!DOCTYPE svg PUBLIC "-//W3C//DTD SVG 20010904//EN"
 "http://www.w3.org/TR/2001/REC-SVG-20010904/DTD/svg10.dtd">
<svg version="1.0" xmlns="http://www.w3.org/2000/svg"
 width="1546.000000pt" height="716.000000pt" viewBox="0 0 1546.000000 716.000000"
 preserveAspectRatio="xMidYMid meet">

<g transform="translate(0.000000,716.000000) scale(0.100000,-0.100000)"
fill="#000000" stroke="none">
<path d="M7066 7146 c-43 -16 -91 -58 -112 -98 -8 -15 -21 -59 -29 -98 -23
-110 -49 -146 -115 -163 -14 -4 -177 -2 -363 4 -375 12 -419 9 -523 -40 -111
-52 -191 -154 -222 -281 -6 -25 -16 -139 -21 -255 -17 -328 -21 -346 -111
-487 -338 -526 -256 -1234 195 -1673 198 -194 429 -315 715 -376 148 -32 391
-32 536 -1 294 63 518 182 733 387 169 162 85 147 814 143 l622 -3 67 23 c157
55 249 158 284 321 16 77 28 383 45 1184 13 614 12 642 -42 752 -33 69 -58 99
-123 149 -97 74 -203 88 -751 101 -337 8 -343 11 -371 146 -27 132 -72 200
-158 237 -51 22 -211 32 -626 37 -340 5 -411 3 -444 -9z m961 -213 c47 -22 62
-52 83 -169 32 -177 56 -200 232 -214 62 -5 271 -14 464 -20 370 -11 426 -18
488 -61 82 -56 100 -148 90 -448 l-7 -194 -311 8 c-171 4 -311 8 -312 8 -1 1
4 34 9 74 16 113 -21 196 -107 237 -42 20 -128 21 -164 2 -35 -18 -85 -72
-106 -113 -9 -18 -20 -33 -24 -33 -4 0 -33 31 -64 69 -145 177 -357 296 -627
351 -173 35 -379 23 -528 -32 -54 -20 -78 -22 -333 -23 -265 -1 -279 -2 -378
-28 -166 -44 -270 -90 -466 -211 -100 -61 -100 -61 -93 107 4 96 11 158 23
191 22 65 88 131 145 146 30 8 167 11 458 9 388 -3 418 -2 451 15 59 31 77 55
121 160 50 119 71 151 113 178 30 19 44 19 421 13 316 -5 396 -9 422 -22z
m-303 -710 c210 -52 456 -262 556 -474 53 -113 72 -209 73 -354 1 -146 -18
-236 -74 -348 -31 -61 -117 -187 -128 -187 -3 0 -4 33 -3 72 12 243 -58 549
-173 754 -92 164 -264 347 -439 466 l-98 67 39 10 c75 21 147 19 247 -6z
m-798 -118 c309 -54 558 -196 722 -414 97 -129 171 -288 208 -447 29 -124 25
-358 -9 -485 -87 -331 -289 -579 -582 -720 -302 -145 -678 -152 -972 -19 -163
74 -357 232 -456 371 -144 203 -220 487 -196 735 46 493 427 901 918 984 80
13 275 11 367 -5z m1714 -40 c91 -47 53 -185 -50 -185 -33 0 -48 6 -71 29 -42
42 -40 92 5 137 38 38 70 43 116 19z"/>
<path d="M7418 6783 c-118 -13 -117 -161 2 -184 25 -4 101 -8 171 -9 124 0
125 0 167 31 l42 31 -17 30 c-41 68 -67 90 -118 99 -50 8 -179 9 -247 2z"/>
<path d="M6594 5996 c-401 -77 -669 -321 -790 -722 -24 -78 -27 -107 -28 -229
-1 -151 14 -243 43 -269 13 -11 47 -18 122 -22 132 -8 186 0 240 35 54 37 89
89 133 203 38 98 169 348 189 360 19 12 42 -20 107 -145 47 -92 59 -123 54
-144 -4 -15 -32 -79 -62 -142 -48 -99 -56 -123 -56 -176 -1 -85 37 -147 114
-188 140 -73 301 12 317 166 5 52 2 63 -48 169 -51 107 -54 117 -54 193 0 94
21 147 89 222 l43 47 33 -44 c18 -25 86 -153 150 -285 77 -157 126 -245 142
-255 14 -9 60 -16 121 -20 l99 -5 -51 -102 c-113 -224 -329 -388 -580 -439
-64 -12 -113 -15 -200 -11 -254 12 -439 106 -611 311 -77 91 -99 105 -160 105
-77 1 -79 -7 -29 -95 105 -185 318 -354 540 -429 219 -75 511 -51 734 59 281
139 525 462 525 693 l0 63 -130 0 c-96 0 -139 4 -160 15 -23 12 -50 59 -144
250 -157 318 -206 367 -328 334 -55 -14 -102 -64 -151 -157 -21 -39 -41 -73
-45 -76 -4 -2 -25 30 -47 72 -74 140 -142 186 -241 161 -75 -19 -102 -56 -235
-321 -67 -134 -128 -251 -137 -260 -17 -20 -110 -25 -141 -8 -33 17 -45 88
-33 202 19 175 69 302 170 432 105 133 292 252 467 297 95 24 269 29 360 10
350 -75 615 -360 664 -716 7 -46 16 -74 27 -82 25 -18 99 -16 114 2 19 22 6
141 -25 250 -98 337 -353 583 -695 672 -118 31 -309 39 -416 19z m226 -1197
c33 -92 -54 -163 -110 -92 -27 35 -23 63 20 158 l33 70 22 -50 c12 -27 28 -66
35 -86z"/>
<path d="M6441 3125 c-11 -15 -25 -44 -30 -64 -17 -73 -67 -512 -76 -666 -3
-66 -17 -205 -30 -310 -36 -280 -72 -598 -90 -785 -8 -91 -20 -199 -26 -240
-9 -59 -8 -83 3 -114 21 -61 32 -64 150 -31 132 37 158 59 158 137 0 110 31
358 60 483 31 133 128 430 186 567 18 43 62 133 99 200 37 68 84 163 105 211
51 117 104 205 109 180 2 -10 -2 -142 -9 -293 -8 -197 -9 -292 -1 -335 37
-216 57 -281 94 -309 l26 -19 40 28 c51 35 113 139 196 328 72 166 86 194 173
347 69 122 113 192 118 187 2 -1 -8 -57 -21 -122 -49 -244 -67 -504 -44 -631
15 -83 72 -197 114 -229 53 -41 145 -53 238 -31 40 9 90 28 109 41 l35 24 0
-40 c0 -53 25 -85 94 -121 83 -44 155 -39 226 15 22 18 75 58 117 90 104 79
191 162 277 263 39 47 73 83 75 82 1 -2 -11 -48 -27 -103 -78 -263 -154 -608
-146 -668 10 -74 60 -91 132 -44 25 16 62 28 98 32 32 4 65 14 72 22 17 17 17
14 44 198 11 77 30 169 41 205 49 151 176 368 242 414 30 21 65 20 76 -1 5
-11 5 -66 -1 -129 -10 -126 -2 -162 44 -178 52 -18 75 -2 146 106 38 56 78
116 89 132 21 30 53 62 55 55 1 -2 2 -69 4 -149 2 -169 16 -213 75 -242 71
-36 155 -16 225 52 l41 40 -10 -75 c-12 -99 3 -171 45 -211 26 -25 38 -29 84
-29 44 0 60 5 92 31 57 45 110 131 191 309 41 88 77 166 81 174 4 8 37 25 73
37 36 12 91 38 122 58 53 34 59 35 79 21 29 -21 70 -19 119 5 23 11 43 20 45
20 2 0 -6 -24 -18 -52 -89 -224 -138 -409 -160 -604 -14 -124 -3 -176 42 -199
27 -15 35 -15 84 0 43 12 63 25 94 63 72 85 205 250 253 314 26 35 72 95 102
133 31 39 73 92 93 118 21 27 39 45 40 40 2 -5 -6 -45 -17 -89 -11 -43 -25
-122 -31 -174 -10 -82 -10 -100 4 -133 22 -51 56 -63 110 -38 52 23 295 262
391 384 38 48 70 87 71 87 1 0 -13 -46 -32 -102 -58 -175 -47 -225 58 -280 83
-44 155 -39 226 15 22 18 76 58 118 91 108 82 195 167 300 290 49 58 91 104
93 101 2 -2 17 -50 32 -107 15 -57 33 -115 38 -129 9 -24 7 -29 -29 -56 -46
-36 -155 -157 -174 -194 -23 -43 -38 -117 -31 -153 15 -79 71 -99 175 -60 67
25 78 33 228 168 24 21 43 44 43 51 0 7 10 25 22 40 l22 28 -18 81 c-10 45
-20 90 -22 101 -3 16 17 36 94 92 54 40 134 94 178 120 75 45 161 106 232 165
18 16 56 40 85 55 l52 27 329 8 328 8 72 -26 c195 -71 309 -94 469 -94 95 0
274 21 346 39 23 6 59 16 81 21 33 9 40 15 40 35 0 31 -18 32 -132 5 -127 -30
-316 -42 -446 -30 -150 14 -362 77 -336 99 5 4 30 24 57 45 83 66 100 134 48
187 -34 33 -47 35 -98 14 -52 -22 -66 -19 -100 19 -35 40 -67 51 -105 37 -66
-25 -79 -114 -32 -207 22 -43 25 -57 15 -67 -8 -8 -77 -14 -224 -18 -197 -5
-218 -7 -292 -33 -76 -26 -341 -176 -530 -301 -92 -60 -152 -95 -165 -95 -12
0 -26 50 -49 180 -26 141 -26 151 -1 178 25 26 77 29 121 6 29 -14 31 -14 54
8 39 36 32 59 -35 113 -71 60 -95 68 -180 60 -60 -6 -68 -10 -112 -53 -27 -25
-48 -51 -48 -58 0 -6 -7 -18 -16 -25 -14 -12 -16 -28 -10 -109 l7 -95 -101
-89 c-55 -49 -142 -120 -193 -158 -101 -76 -128 -100 -82 -73 l30 17 -25 -20
c-13 -11 -28 -18 -32 -16 -4 2 -42 -18 -86 -46 -43 -27 -91 -50 -105 -50 -23
0 -26 3 -22 28 3 15 12 72 21 127 9 55 17 100 18 100 0 0 10 6 21 13 11 6 31
17 44 22 13 6 57 34 98 62 88 61 117 105 134 202 10 63 10 70 -8 95 -11 14
-39 37 -62 50 -36 20 -46 21 -70 11 -44 -18 -125 -107 -178 -197 -33 -54 -67
-96 -100 -123 -28 -22 -90 -86 -139 -141 -48 -56 -138 -154 -200 -218 -112
-114 -113 -116 -114 -83 0 49 54 243 101 357 23 57 43 125 46 158 6 56 5 58
-31 92 -43 41 -85 46 -116 15 -11 -11 -20 -33 -20 -48 0 -71 -29 -119 -143
-234 -60 -62 -161 -171 -222 -243 -62 -71 -140 -157 -174 -190 -71 -69 -75
-63 -37 62 13 43 34 112 46 153 12 41 55 150 96 241 98 220 98 230 -11 303
-49 32 -68 33 -85 1 -23 -43 -172 -147 -187 -131 -3 2 11 15 31 28 35 23 46
38 26 38 -6 0 -28 -11 -50 -25 -46 -29 -54 -31 -46 -10 9 25 -13 70 -44 88
-28 17 -30 17 -51 -4 -19 -19 -21 -29 -15 -74 3 -29 9 -60 12 -69 4 -11 -2
-17 -23 -22 -15 -4 -52 -18 -82 -30 -29 -13 -57 -24 -61 -24 -4 0 -10 30 -14
66 -12 113 -31 133 -148 149 -44 6 -49 4 -89 -32 -31 -29 -48 -37 -71 -34 -44
4 -74 -22 -93 -81 -25 -75 -68 -152 -123 -216 -56 -66 -150 -144 -163 -136
-19 11 -37 73 -43 145 -4 41 -12 118 -18 172 -11 85 -15 98 -33 103 -51 13
-92 -22 -211 -182 -75 -101 -108 -133 -122 -119 -3 2 -4 57 -3 122 1 130 -8
157 -57 167 -53 12 -106 -22 -164 -104 -16 -22 -16 -19 1 25 11 28 35 84 55
125 40 82 45 129 19 152 -23 20 -104 45 -170 54 -29 4 -58 13 -64 20 -16 20
-27 18 -61 -13 -39 -37 -78 -104 -78 -134 0 -13 -10 -57 -22 -97 -21 -72 -22
-73 -134 -173 -61 -55 -148 -127 -193 -161 -44 -33 -79 -64 -76 -69 6 -8 -31
-33 -50 -34 -6 0 -44 -21 -86 -47 -42 -27 -88 -48 -103 -48 -22 0 -25 3 -21
28 7 37 35 221 35 226 0 2 8 6 18 10 27 9 108 59 171 104 69 51 96 95 111 186
11 63 11 70 -7 95 -28 37 -98 74 -125 65 -40 -12 -128 -106 -177 -188 -27 -45
-74 -133 -106 -196 -31 -63 -67 -123 -78 -133 -73 -60 -199 -96 -282 -81 -41
8 -51 14 -59 37 -7 20 -6 37 3 60 16 39 47 171 59 252 25 158 63 339 87 420
32 103 34 138 14 179 -18 39 -181 156 -216 156 -55 0 -125 -107 -273 -415
-175 -364 -181 -376 -173 -325 12 74 4 289 -12 344 -11 35 -12 59 -6 81 18 61
34 232 27 296 -4 36 -16 80 -26 96 -10 17 -58 63 -107 103 -135 109 -148 102
-297 -170 -53 -97 -125 -238 -161 -315 -69 -148 -71 -148 -55 3 16 149 30 229
57 326 32 116 25 134 -62 176 -34 16 -88 36 -121 44 -32 8 -69 18 -80 21 -16
5 -27 0 -43 -20z m7984 -628 c27 -43 70 -47 130 -13 50 28 54 21 24 -40 -37
-78 -125 -108 -174 -60 -32 32 -56 121 -38 139 15 15 39 4 58 -26z m-5851
-246 c14 -16 16 -26 8 -55 -16 -56 -47 -92 -112 -125 -33 -17 -60 -28 -60 -24
0 5 21 48 45 97 65 129 84 146 119 107z m3910 0 c14 -16 16 -26 8 -55 -16 -56
-47 -92 -112 -125 -33 -17 -60 -30 -60 -27 0 13 56 126 85 172 37 58 52 65 79
35z m-1925 -117 c14 -18 21 -41 21 -70 0 -44 0 -44 -35 -44 -29 0 -39 6 -55
33 -11 17 -20 49 -20 70 0 36 1 37 34 37 25 0 40 -7 55 -26z m-142 -198 c16
-8 50 -17 76 -21 57 -9 57 -5 -15 -149 -53 -108 -96 -172 -152 -225 -52 -50
-62 -35 -58 87 3 105 18 183 58 305 l26 79 19 -31 c10 -16 31 -37 46 -45z
m1174 -19 l-23 -22 17 28 c10 15 20 25 23 22 3 -3 -5 -16 -17 -28z m1393 -302
c11 -71 -32 -130 -130 -179 -58 -29 -94 -33 -94 -12 0 27 195 250 211 241 3
-3 10 -25 13 -50z"/>
<path d="M1750 3103 c-98 -4 -168 -30 -217 -81 -59 -60 -102 -152 -109 -232
-9 -92 13 -166 106 -357 l79 -163 -37 0 c-20 0 -136 7 -256 17 -253 19 -406
11 -581 -31 -227 -55 -400 -137 -585 -277 -138 -105 -182 -169 -122 -177 16
-3 41 14 90 58 131 121 327 235 502 294 173 57 212 61 635 60 l389 0 93 -150
c83 -133 173 -293 173 -307 0 -3 -48 -45 -107 -93 -337 -277 -542 -578 -545
-802 -2 -75 14 -101 88 -147 41 -25 58 -30 109 -29 33 1 87 12 120 24 76 27
143 47 220 65 72 17 105 31 258 114 135 74 256 178 320 276 33 51 38 66 34
100 -6 51 -82 260 -151 415 l-54 121 60 45 c61 44 351 194 377 194 8 0 11 -6
7 -16 -3 -9 -13 -70 -22 -137 -15 -115 -58 -389 -71 -450 -7 -37 22 -112 53
-136 36 -28 102 -36 147 -18 20 9 49 34 67 58 41 57 131 245 160 334 12 39 33
90 46 115 12 25 32 67 43 94 12 27 23 47 25 45 2 -2 16 -74 30 -159 50 -293
103 -430 176 -452 18 -5 106 23 169 55 35 17 49 32 66 72 39 86 82 225 110
350 15 66 31 136 36 155 l8 35 61 -3 c37 -2 78 2 105 11 25 9 45 14 45 11 0
-2 -14 -31 -30 -64 -43 -85 -91 -237 -92 -293 -2 -61 20 -91 93 -129 83 -44
155 -39 226 15 22 18 76 59 120 92 43 33 114 94 159 137 l80 77 -18 -72 c-15
-58 -16 -82 -8 -126 5 -29 15 -60 22 -68 40 -49 132 -56 235 -18 63 24 90 42
297 200 29 22 85 64 124 94 40 29 72 56 72 58 0 3 -8 -1 -17 -8 -10 -7 -5 1
11 19 17 18 33 32 36 32 3 0 -2 -62 -11 -137 -17 -131 -41 -361 -58 -557 -9
-98 1 -166 28 -190 16 -14 24 -13 101 20 97 41 111 50 103 70 -3 9 -1 25 5 37
5 12 17 110 26 217 18 208 87 651 138 888 36 168 30 162 168 162 83 0 91 2
115 26 14 14 24 28 22 30 -8 8 -159 34 -198 34 -27 0 -39 4 -39 14 0 21 46
143 75 200 29 56 32 102 10 134 -21 29 -88 66 -148 82 -26 7 -50 17 -53 21
-11 19 -35 7 -59 -28 -14 -21 -33 -49 -42 -62 -12 -17 -17 -40 -15 -78 2 -34
-9 -103 -29 -183 l-31 -127 -66 -19 c-153 -41 -221 -81 -222 -132 0 -28 9 -27
159 19 51 16 97 29 101 29 4 0 -4 -53 -16 -117 -13 -65 -29 -158 -36 -207
l-12 -88 -56 -38 c-30 -21 -105 -74 -167 -118 -150 -107 -216 -144 -293 -163
-36 -9 -66 -15 -68 -14 -5 4 58 185 79 227 19 37 25 41 89 54 42 8 125 91 158
158 20 38 22 55 17 108 -3 35 -8 72 -10 83 -7 35 -43 65 -78 65 -18 0 -38 4
-46 9 -55 35 -206 -124 -303 -319 -8 -15 -144 -132 -225 -192 -51 -39 -90 -74
-88 -79 6 -8 -31 -33 -50 -34 -6 0 -44 -21 -86 -47 -42 -27 -88 -48 -103 -48
-22 0 -25 3 -21 28 7 37 35 221 35 226 0 2 8 6 18 10 27 9 108 59 171 104 69
51 96 95 111 186 11 63 11 70 -7 95 -11 14 -39 37 -62 50 -36 20 -46 21 -71
11 -41 -17 -129 -114 -174 -191 -33 -56 -46 -70 -87 -88 -32 -14 -70 -21 -110
-21 -59 0 -62 1 -113 50 -29 28 -60 50 -69 50 -20 0 -37 -30 -37 -63 0 -14 -6
-40 -14 -58 -8 -19 -17 -56 -22 -84 -7 -52 -60 -176 -143 -334 l-48 -94 -16
49 c-8 27 -18 78 -22 114 -3 36 -17 88 -31 117 -13 28 -24 62 -24 75 0 51 -94
141 -140 136 -18 -2 -32 -16 -50 -49 -109 -201 -263 -439 -276 -427 -13 14 53
353 106 535 17 57 30 114 30 126 0 37 -111 127 -157 127 -41 0 -73 -40 -85
-107 l-11 -63 -51 -16 c-67 -22 -289 -128 -397 -191 l-86 -49 -38 74 c-21 41
-67 122 -102 180 -34 58 -62 106 -60 107 1 1 43 21 92 46 156 76 271 212 304
361 20 86 -18 207 -88 283 -62 68 -290 149 -401 143 -19 -1 -64 -3 -100 -5z
m300 -142 c75 -38 143 -99 172 -155 32 -62 23 -155 -22 -231 -48 -81 -152
-183 -227 -223 l-61 -32 -46 72 c-106 171 -143 290 -147 470 -3 138 -4 138
166 134 90 -3 106 -6 165 -35z m2174 -710 c14 -16 16 -26 8 -55 -16 -56 -47
-92 -112 -125 -33 -17 -60 -28 -60 -24 0 5 21 48 45 97 65 129 84 146 119 107z
m687 -33 c9 -80 -23 -137 -88 -159 -58 -19 -64 -10 -32 51 15 30 31 62 35 70
14 31 38 50 61 50 12 0 24 -6 24 -12z m-2924 -605 c14 -32 48 -114 75 -183 49
-121 50 -126 39 -176 -28 -125 -156 -257 -336 -347 -138 -69 -243 -83 -327
-43 -107 51 -93 162 47 371 54 81 224 260 312 328 63 49 146 106 156 106 4 1
20 -25 34 -56z"/>
<path d="M11807 2652 c-33 -36 -87 -184 -87 -239 0 -12 5 -34 11 -50 11 -27
12 -27 21 -7 5 11 38 35 73 52 55 28 65 38 84 82 11 27 21 57 21 67 0 27 -33
72 -69 94 -38 23 -34 23 -54 1z"/>
<path d="M4199 1773 c-13 -17 -13 -17 6 -3 11 8 22 16 24 17 2 2 0 3 -6 3 -6
0 -17 -8 -24 -17z"/>
<path d="M8549 1773 c-13 -17 -13 -17 6 -3 11 8 22 16 24 17 2 2 0 3 -6 3 -6
0 -17 -8 -24 -17z"/>
<path d="M4946 724 c-9 -8 -16 -21 -16 -28 0 -21 35 -46 63 -46 l27 0 0 -190
0 -190 -24 0 c-26 0 -56 -23 -56 -44 0 -33 35 -46 124 -46 97 0 126 10 126 43
0 29 -18 47 -47 47 -22 0 -23 3 -23 85 l0 84 37 26 c48 32 123 35 153 5 17
-17 20 -33 20 -110 0 -88 -1 -90 -23 -90 -30 0 -60 -32 -51 -54 11 -28 39 -36
124 -36 91 0 120 10 120 43 0 29 -18 47 -47 47 -22 0 -23 2 -23 100 0 110 -10
143 -55 179 -52 40 -156 47 -238 15 -15 -5 -17 4 -17 85 l0 91 -79 0 c-59 0
-84 -4 -95 -16z"/>
<path d="M9708 729 c-38 -21 -10 -79 38 -79 l24 0 0 -190 0 -190 -23 0 c-44 0
-62 -43 -31 -74 22 -23 196 -23 218 0 31 31 13 74 -31 74 -23 0 -24 2 -21 87
3 87 3 87 37 110 37 25 107 31 142 13 17 -10 19 -22 19 -110 l0 -100 -25 0
c-37 0 -55 -42 -30 -70 16 -17 31 -20 107 -20 99 0 128 10 128 43 0 29 -18 47
-47 47 -22 0 -23 3 -23 95 0 59 -5 108 -14 129 -35 83 -162 115 -279 70 -15
-5 -17 4 -17 85 l0 91 -77 0 c-43 0 -86 -5 -95 -11z"/>
<path d="M4422 704 c-56 -13 -47 -78 13 -90 l35 -6 0 -168 0 -169 -31 -3 c-19
-2 -38 -12 -46 -25 -13 -19 -12 -24 6 -42 19 -19 33 -21 161 -21 128 0 142 2
161 21 18 18 19 23 6 42 -12 19 -25 22 -86 25 l-71 3 0 43 0 44 94 4 c83 3
100 7 142 34 108 66 126 173 42 251 -49 46 -93 56 -253 59 -82 1 -160 0 -173
-2z m350 -123 c29 -26 31 -32 23 -56 -18 -50 -57 -69 -146 -74 l-79 -3 0 81 0
81 85 0 c79 0 87 -2 117 -29z"/>
<path d="M6301 701 c-9 -6 -16 -32 -19 -70 l-4 -61 -37 0 c-40 0 -61 -14 -61
-41 0 -23 38 -49 71 -49 l27 0 4 -114 c3 -111 4 -116 32 -145 42 -43 84 -55
185 -48 159 10 248 66 177 112 -22 15 -29 14 -85 -5 -58 -19 -152 -27 -185
-14 -13 5 -16 25 -16 110 l0 104 101 0 c55 0 108 4 118 10 25 13 33 37 21 61
-10 17 -22 19 -124 19 l-114 0 -4 61 c-5 63 -15 79 -53 79 -11 0 -26 -4 -34
-9z"/>
<path d="M5751 580 c-62 -13 -127 -55 -159 -102 -23 -35 -27 -52 -27 -109 0
-60 3 -71 31 -106 16 -21 52 -49 80 -63 41 -21 63 -25 139 -25 77 0 98 4 139
25 27 14 62 42 79 62 60 75 42 202 -37 263 -63 48 -166 71 -245 55z m156 -111
c60 -38 80 -105 43 -151 -60 -77 -210 -77 -270 0 -36 46 -18 112 42 151 46 29
138 29 185 0z"/>
<path d="M6941 580 c-182 -38 -255 -235 -128 -347 109 -96 321 -81 410 29 60
75 42 202 -37 263 -63 48 -166 71 -245 55z m156 -111 c60 -38 80 -105 43 -151
-60 -77 -210 -77 -270 0 -36 46 -16 116 43 152 45 28 138 27 184 -1z"/>
<path d="M7482 571 c-184 -64 -204 -287 -33 -373 63 -32 158 -38 216 -14 l35
15 0 -35 c0 -60 -25 -74 -131 -74 -50 0 -98 -4 -108 -10 -25 -13 -33 -37 -21
-61 10 -17 22 -19 121 -19 121 0 158 10 201 56 43 46 48 74 48 253 l0 167 38
10 c28 7 38 15 40 32 7 45 -13 53 -122 52 -56 -1 -117 3 -136 9 -49 15 -87 13
-148 -8z m158 -96 c41 -21 60 -53 60 -101 0 -131 -218 -156 -260 -30 -14 43 4
92 45 124 33 26 111 30 155 7z"/>
<path d="M8283 576 c-23 -8 -58 -23 -77 -36 l-36 -22 0 26 c0 26 0 26 -88 26
-90 0 -112 -8 -112 -41 0 -24 38 -49 72 -49 l28 0 0 -105 0 -105 -48 0 c-26 0
-53 -5 -60 -12 -18 -18 -14 -56 7 -68 26 -13 366 -13 392 0 21 12 25 50 7 68
-8 8 -46 12 -105 12 l-94 0 3 67 3 67 64 43 c70 46 96 51 142 27 34 -17 64
-11 79 16 14 26 -27 73 -78 88 -47 14 -46 14 -99 -2z"/>
<path d="M8682 575 c-79 -14 -102 -27 -102 -56 0 -33 41 -51 91 -40 49 12 159
14 183 5 9 -3 16 -16 16 -28 0 -20 -4 -21 -71 -18 -86 4 -151 -10 -201 -44
-38 -26 -68 -76 -68 -113 0 -30 55 -88 98 -102 47 -16 149 -13 201 4 22 8 41
11 41 6 0 -13 147 -11 171 1 21 12 25 50 7 68 -7 7 -24 12 -39 12 l-27 0 -4
116 -3 116 -36 33 c-24 22 -54 37 -88 44 -62 13 -75 13 -169 -4z m151 -232
c31 -5 37 -9 35 -27 -7 -48 -195 -77 -222 -34 -14 22 -2 35 50 53 43 16 80 18
137 8z"/>
<path d="M9340 576 c-25 -7 -53 -16 -62 -21 -11 -4 -18 -3 -18 4 0 12 -148 16
-166 3 -37 -25 -9 -82 41 -82 l25 0 0 -195 0 -195 -25 0 c-50 0 -78 -57 -41
-82 6 -4 70 -8 143 -8 120 0 133 2 143 19 21 41 -12 71 -79 71 l-41 0 0 65 c0
36 3 65 8 65 4 0 25 -7 47 -15 94 -34 221 -6 287 62 40 42 51 68 50 124 -1 48
-22 88 -68 129 -68 59 -161 81 -244 56z m176 -129 c46 -49 45 -85 -1 -125 -59
-52 -148 -54 -212 -6 -41 31 -49 63 -28 103 27 52 69 73 144 68 58 -3 66 -6
97 -40z"/>
<path d="M10300 550 c-13 -24 1 -56 27 -64 10 -4 56 -72 102 -153 l85 -147
-26 -45 c-25 -45 -26 -46 -79 -49 -30 -1 -64 -4 -76 -7 -31 -7 -47 -39 -33
-65 10 -19 21 -20 170 -20 147 0 160 1 170 19 14 27 2 51 -31 65 l-28 12 107
188 c76 133 116 192 135 202 29 16 36 51 15 72 -8 8 -46 12 -105 12 -82 0 -93
-2 -103 -20 -13 -25 1 -56 30 -65 20 -6 19 -9 -16 -73 -21 -37 -45 -80 -55
-96 l-17 -28 -55 93 -55 93 29 18 c30 19 37 46 17 66 -8 8 -46 12 -105 12 -82
0 -93 -2 -103 -20z"/>
<path d="M1597 383 c-4 -3 -7 -21 -7 -40 l0 -33 1295 0 1295 0 0 40 0 40
-1288 0 c-709 0 -1292 -3 -1295 -7z"/>
<path d="M10980 350 l0 -40 1296 0 1295 0 -3 38 -3 37 -1292 3 -1293 2 0 -40z"/>
</g>
</svg>
