<?xml version="1.0" standalone="no"?>
<!DOCTYPE svg PUBLIC "-//W3C//DTD SVG 20010904//EN"
 "http://www.w3.org/TR/2001/REC-SVG-20010904/DTD/svg10.dtd">
<svg version="1.0" xmlns="http://www.w3.org/2000/svg"
 width="437.000000pt" height="361.000000pt" viewBox="0 0 437.000000 361.000000"
 preserveAspectRatio="xMidYMid meet">

<g transform="translate(0.000000,361.000000) scale(0.100000,-0.100000)"
fill="#000000" stroke="none">
<path d="M1786 3596 c-43 -16 -91 -58 -112 -98 -8 -15 -21 -59 -29 -98 -23
-110 -49 -146 -115 -163 -14 -4 -177 -2 -363 4 -375 12 -419 9 -523 -40 -111
-52 -191 -154 -222 -281 -6 -25 -16 -139 -21 -255 -17 -328 -21 -346 -111
-487 -338 -526 -256 -1234 195 -1673 198 -194 429 -315 715 -376 148 -32 391
-32 536 -1 294 63 518 182 733 387 169 162 85 147 814 143 l622 -3 67 23 c157
55 249 158 284 321 16 77 28 383 45 1184 13 614 12 642 -42 752 -33 69 -58 99
-123 149 -97 74 -203 88 -751 101 -337 8 -343 11 -371 146 -27 132 -72 200
-158 237 -51 22 -211 32 -626 37 -340 5 -411 3 -444 -9z m961 -213 c47 -22 62
-52 83 -169 32 -177 56 -200 232 -214 62 -5 271 -14 464 -20 370 -11 426 -18
488 -61 82 -56 100 -148 90 -448 l-7 -194 -311 8 c-171 4 -311 8 -312 8 -1 1
4 34 9 74 16 113 -21 196 -107 237 -42 20 -128 21 -164 2 -35 -18 -85 -72
-106 -113 -9 -18 -20 -33 -24 -33 -4 0 -33 31 -64 69 -145 177 -357 296 -627
351 -173 35 -379 23 -528 -32 -54 -20 -78 -22 -333 -23 -265 -1 -279 -2 -378
-28 -166 -44 -270 -90 -466 -211 -100 -61 -100 -61 -93 107 4 96 11 158 23
191 22 65 88 131 145 146 30 8 167 11 458 9 388 -3 418 -2 451 15 59 31 77 55
121 160 50 119 71 151 113 178 30 19 44 19 421 13 316 -5 396 -9 422 -22z
m-303 -710 c210 -52 456 -262 556 -474 53 -113 72 -209 73 -354 1 -146 -18
-236 -74 -348 -31 -61 -117 -187 -128 -187 -3 0 -4 33 -3 72 12 243 -58 549
-173 754 -92 164 -264 347 -439 466 l-98 67 39 10 c75 21 147 19 247 -6z
m-798 -118 c309 -54 558 -196 722 -414 97 -129 171 -288 208 -447 29 -124 25
-358 -9 -485 -87 -331 -289 -579 -582 -720 -302 -145 -678 -152 -972 -19 -163
74 -357 232 -456 371 -144 203 -220 487 -196 735 46 493 427 901 918 984 80
13 275 11 367 -5z m1714 -40 c91 -47 53 -185 -50 -185 -33 0 -48 6 -71 29 -42
42 -40 92 5 137 38 38 70 43 116 19z"/>
<path d="M2138 3233 c-118 -13 -117 -161 2 -184 25 -4 101 -8 171 -9 124 0
125 0 167 31 l42 31 -17 30 c-41 68 -67 90 -118 99 -50 8 -179 9 -247 2z"/>
<path d="M1314 2446 c-401 -77 -669 -321 -790 -722 -24 -78 -27 -107 -28 -229
-1 -151 14 -243 43 -269 13 -11 47 -18 122 -22 132 -8 186 0 240 35 54 37 89
89 133 203 38 98 169 348 189 360 19 12 42 -20 107 -145 47 -92 59 -123 54
-144 -4 -15 -32 -79 -62 -142 -48 -99 -56 -123 -56 -176 -1 -85 37 -147 114
-188 140 -73 301 12 317 166 5 52 2 63 -48 169 -51 107 -54 117 -54 193 0 94
21 147 89 222 l43 47 33 -44 c18 -25 86 -153 150 -285 77 -157 126 -245 142
-255 14 -9 60 -16 121 -20 l99 -5 -51 -102 c-113 -224 -329 -388 -580 -439
-64 -12 -113 -15 -200 -11 -254 12 -439 106 -611 311 -77 91 -99 105 -160 105
-77 1 -79 -7 -29 -95 105 -185 318 -354 540 -429 219 -75 511 -51 734 59 281
139 525 462 525 693 l0 63 -130 0 c-96 0 -139 4 -160 15 -23 12 -50 59 -144
250 -157 318 -206 367 -328 334 -55 -14 -102 -64 -151 -157 -21 -39 -41 -73
-45 -76 -4 -2 -25 30 -47 72 -74 140 -142 186 -241 161 -75 -19 -102 -56 -235
-321 -67 -134 -128 -251 -137 -260 -17 -20 -110 -25 -141 -8 -33 17 -45 88
-33 202 19 175 69 302 170 432 105 133 292 252 467 297 95 24 269 29 360 10
350 -75 615 -360 664 -716 7 -46 16 -74 27 -82 25 -18 99 -16 114 2 19 22 6
141 -25 250 -98 337 -353 583 -695 672 -118 31 -309 39 -416 19z m226 -1197
c33 -92 -54 -163 -110 -92 -27 35 -23 63 20 158 l33 70 22 -50 c12 -27 28 -66
35 -86z"/>
</g>
</svg>
